<?xml version="1.0" encoding="utf-8"?>
<!-- Svg Vector Icons : http://www.onlinewebfonts.com/icon -->
<!DOCTYPE svg PUBLIC "-//W3C//DTD SVG 1.1//EN" "http://www.w3.org/Graphics/SVG/1.1/DTD/svg11.dtd">
<svg version="1.1" xmlns="http://www.w3.org/2000/svg" xmlns:xlink="http://www.w3.org/1999/xlink" x="0px" y="0px" viewBox="0 0 256 256" enable-background="new 0 0 256 256" xml:space="preserve">
<metadata> Svg Vector Icons : http://www.onlinewebfonts.com/icon </metadata>
<g><g><path fill="#000000" d="M127.7,15.8c10.8-2.5,22,0.4,31.7,5.3c13.2,6.8,24.7,16.5,36.1,25.9c15.1,12.5,30.1,25.6,41.5,41.7c5.2,7.7,10,16.8,8.8,26.4c-1.3,9-9.2,15.9-18,17.2c-19,3.2-37.8-4.2-56.8-2.7c-6.8,0.6-12.9,3.9-18.7,7.2c-11.8,6.8-22.9,15-32.6,24.6c-4.3,4.6-8.7,9.6-10.4,15.9c-4.8,16.5-4.6,34.3-11.8,50.2c-3,6.6-8.8,12.6-16.4,13.4c-8.1,1.4-15.7-3.1-21.4-8.5c-10.7-10.2-17.8-23.3-24.4-36.3c-9.1-18.8-16.3-38.5-22.1-58.6c-3-11.3-5.5-23.9-0.7-35.1c4.5-10.5,14.2-17.5,23.9-22.8c12.8-7.4,29.1-6.5,40.9-15.9c12.9-9.5,18.1-25.7,29.8-36.4C113,21.9,120,17.7,127.7,15.8 M137.7,44.4c-6.5,1.6-8.9,10.5-4.1,15.2c4.4,5.2,13.8,2.9,15.5-3.7C151.5,49.3,144.3,42,137.7,44.4 M161.1,47.9c-6.3,1.8-8.6,10.6-3.8,15.2c4.4,5,13.6,2.9,15.4-3.6C175.4,52.7,167.8,45.3,161.1,47.9 M133.8,69c-6.8,1.8-8.8,11.5-3.2,15.8c5,4.6,14,1.4,15-5.3C147.2,73,140.1,66.6,133.8,69 M157.3,72.5c-6.6,2-8.4,11.6-3,15.7c4.9,4.5,13.8,1.5,14.9-5C171.1,76.5,163.7,69.9,157.3,72.5 M60.4,100.9c-16.1,3.5-27.4,20.9-23.7,37c2.8,16.1,19.8,27.8,35.9,24.8c17-2.3,29.8-20.4,26-37.3C95.7,108.4,77.1,96.4,60.4,100.9L60.4,100.9z"/><path fill="#000000" d="M63.1,113.6c10.2-2.9,21.6,4.7,22.8,15.3c1.8,10.2-6.6,20.6-16.9,21.1c-9.5,1.1-18.7-6.5-19.8-15.9C47.8,125,54.1,115.6,63.1,113.6L63.1,113.6z"/></g></g>
</svg>